<?xml version="1.0" encoding="utf-8" standalone="no"?>
<!DOCTYPE svg PUBLIC "-//W3C//DTD SVG 1.1//EN"
  "http://www.w3.org/Graphics/SVG/1.1/DTD/svg11.dtd">
<!-- Created with matplotlib (http://matplotlib.org/) -->
<svg height="504pt" version="1.1" viewBox="0 0 432 504" width="432pt" xmlns="http://www.w3.org/2000/svg" xmlns:xlink="http://www.w3.org/1999/xlink">
 <defs>
  <style type="text/css">
*{stroke-linecap:butt;stroke-linejoin:round;}
  </style>
 </defs>
 <g id="figure_1">
  <g id="patch_1">
   <path d="
M0 504
L432 504
L432 0
L0 0
z
" style="fill:none;"/>
  </g>
  <g id="axes_1">
   <g id="line2d_1">
    <path clip-path="url(#p39204711de)" d="
M205.2 335.995
L226.8 335.995
L226.8 325.97
L221.4 315
L226.8 304.03
L226.8 273.891
L205.2 273.891
L205.2 304.03
L210.6 315
L205.2 325.97
L205.2 335.995" style="fill:none;stroke:#000000;stroke-linecap:square;"/>
   </g>
   <g id="line2d_2">
    <path clip-path="url(#p39204711de)" d="
M216 335.995
L216 429.066" style="fill:none;stroke:#000000;stroke-linecap:square;"/>
   </g>
   <g id="line2d_3">
    <path clip-path="url(#p39204711de)" d="
M216 273.891
L216 199.549" style="fill:none;stroke:#000000;stroke-linecap:square;"/>
   </g>
   <g id="line2d_4">
    <path clip-path="url(#p39204711de)" d="
M210.6 429.066
L221.4 429.066" style="fill:none;stroke:#000000;stroke-linecap:square;"/>
   </g>
   <g id="line2d_5">
    <path clip-path="url(#p39204711de)" d="
M210.6 199.549
L221.4 199.549" style="fill:none;stroke:#000000;stroke-linecap:square;"/>
   </g>
   <g id="line2d_6">
    <path clip-path="url(#p39204711de)" d="
M210.6 315
L221.4 315" style="fill:none;stroke:#000000;stroke-linecap:square;"/>
   </g>
   <g id="line2d_7">
    <defs>
     <path d="
M-3 0
L3 0
M0 3
L0 -3" id="m51ee1c91f7" style="stroke:#000000;stroke-width:0.5;"/>
    </defs>
    <g clip-path="url(#p39204711de)">
     <use style="fill:#0000ff;stroke:#000000;stroke-width:0.5;" x="216.0" xlink:href="#m51ee1c91f7" y="437.530350703"/>
     <use style="fill:#0000ff;stroke:#000000;stroke-width:0.5;" x="216.0" xlink:href="#m51ee1c91f7" y="430.082336201"/>
     <use style="fill:#0000ff;stroke:#000000;stroke-width:0.5;" x="216.0" xlink:href="#m51ee1c91f7" y="583.618050049"/>
     <use style="fill:#0000ff;stroke:#000000;stroke-width:0.5;" x="216.0" xlink:href="#m51ee1c91f7" y="442.704543621"/>
     <use style="fill:#0000ff;stroke:#000000;stroke-width:0.5;" x="216.0" xlink:href="#m51ee1c91f7" y="160.802631971"/>
     <use style="fill:#0000ff;stroke:#000000;stroke-width:0.5;" x="216.0" xlink:href="#m51ee1c91f7" y="35.9871860329"/>
    </g>
   </g>
   <g id="matplotlib.axis_1"/>
   <g id="matplotlib.axis_2"/>
   <g id="patch_2">
    <path d="
M240.793 35.28
Q232.995 35.28 226.315 35.28" style="fill:none;stroke:#000000;stroke-linecap:round;"/>
    <path d="
M231.115 37.68
L226.315 35.28
L231.115 32.88" style="fill:none;stroke:#000000;stroke-linecap:round;"/>
   </g>
   <g id="text_1">
    <!-- outliers -->
    <defs>
     <path d="
M30.6094 48.3906
Q23.3906 48.3906 19.1875 42.75
Q14.9844 37.1094 14.9844 27.2969
Q14.9844 17.4844 19.1562 11.8438
Q23.3438 6.20312 30.6094 6.20312
Q37.7969 6.20312 41.9844 11.8594
Q46.1875 17.5312 46.1875 27.2969
Q46.1875 37.0156 41.9844 42.7031
Q37.7969 48.3906 30.6094 48.3906
M30.6094 56
Q42.3281 56 49.0156 48.375
Q55.7188 40.7656 55.7188 27.2969
Q55.7188 13.875 49.0156 6.21875
Q42.3281 -1.42188 30.6094 -1.42188
Q18.8438 -1.42188 12.1719 6.21875
Q5.51562 13.875 5.51562 27.2969
Q5.51562 40.7656 12.1719 48.375
Q18.8438 56 30.6094 56" id="BitstreamVeraSans-Roman-6f"/>
     <path d="
M9.42188 75.9844
L18.4062 75.9844
L18.4062 0
L9.42188 0
z
" id="BitstreamVeraSans-Roman-6c"/>
     <path d="
M9.42188 54.6875
L18.4062 54.6875
L18.4062 0
L9.42188 0
z

M9.42188 75.9844
L18.4062 75.9844
L18.4062 64.5938
L9.42188 64.5938
z
" id="BitstreamVeraSans-Roman-69"/>
     <path d="
M56.2031 29.5938
L56.2031 25.2031
L14.8906 25.2031
Q15.4844 15.9219 20.4844 11.0625
Q25.4844 6.20312 34.4219 6.20312
Q39.5938 6.20312 44.4531 7.46875
Q49.3125 8.73438 54.1094 11.2812
L54.1094 2.78125
Q49.2656 0.734375 44.1875 -0.34375
Q39.1094 -1.42188 33.8906 -1.42188
Q20.7969 -1.42188 13.1562 6.1875
Q5.51562 13.8125 5.51562 26.8125
Q5.51562 40.2344 12.7656 48.1094
Q20.0156 56 32.3281 56
Q43.3594 56 49.7812 48.8906
Q56.2031 41.7969 56.2031 29.5938
M47.2188 32.2344
Q47.125 39.5938 43.0938 43.9844
Q39.0625 48.3906 32.4219 48.3906
Q24.9062 48.3906 20.3906 44.1406
Q15.875 39.8906 15.1875 32.1719
z
" id="BitstreamVeraSans-Roman-65"/>
     <path d="
M18.3125 70.2188
L18.3125 54.6875
L36.8125 54.6875
L36.8125 47.7031
L18.3125 47.7031
L18.3125 18.0156
Q18.3125 11.3281 20.1406 9.42188
Q21.9688 7.51562 27.5938 7.51562
L36.8125 7.51562
L36.8125 0
L27.5938 0
Q17.1875 0 13.2344 3.875
Q9.28125 7.76562 9.28125 18.0156
L9.28125 47.7031
L2.6875 47.7031
L2.6875 54.6875
L9.28125 54.6875
L9.28125 70.2188
z
" id="BitstreamVeraSans-Roman-74"/>
     <path d="
M8.5 21.5781
L8.5 54.6875
L17.4844 54.6875
L17.4844 21.9219
Q17.4844 14.1562 20.5 10.2656
Q23.5312 6.39062 29.5938 6.39062
Q36.8594 6.39062 41.0781 11.0312
Q45.3125 15.6719 45.3125 23.6875
L45.3125 54.6875
L54.2969 54.6875
L54.2969 0
L45.3125 0
L45.3125 8.40625
Q42.0469 3.42188 37.7188 1
Q33.4062 -1.42188 27.6875 -1.42188
Q18.2656 -1.42188 13.375 4.4375
Q8.5 10.2969 8.5 21.5781" id="BitstreamVeraSans-Roman-75"/>
     <path d="
M41.1094 46.2969
Q39.5938 47.1719 37.8125 47.5781
Q36.0312 48 33.8906 48
Q26.2656 48 22.1875 43.0469
Q18.1094 38.0938 18.1094 28.8125
L18.1094 0
L9.07812 0
L9.07812 54.6875
L18.1094 54.6875
L18.1094 46.1875
Q20.9531 51.1719 25.4844 53.5781
Q30.0312 56 36.5312 56
Q37.4531 56 38.5781 55.875
Q39.7031 55.7656 41.0625 55.5156
z
" id="BitstreamVeraSans-Roman-72"/>
     <path d="
M44.2812 53.0781
L44.2812 44.5781
Q40.4844 46.5312 36.375 47.5
Q32.2812 48.4844 27.875 48.4844
Q21.1875 48.4844 17.8438 46.4375
Q14.5 44.3906 14.5 40.2812
Q14.5 37.1562 16.8906 35.375
Q19.2812 33.5938 26.5156 31.9844
L29.5938 31.2969
Q39.1562 29.25 43.1875 25.5156
Q47.2188 21.7812 47.2188 15.0938
Q47.2188 7.46875 41.1875 3.01562
Q35.1562 -1.42188 24.6094 -1.42188
Q20.2188 -1.42188 15.4531 -0.5625
Q10.6875 0.296875 5.42188 2
L5.42188 11.2812
Q10.4062 8.6875 15.2344 7.39062
Q20.0625 6.10938 24.8125 6.10938
Q31.1562 6.10938 34.5625 8.28125
Q37.9844 10.4531 37.9844 14.4062
Q37.9844 18.0625 35.5156 20.0156
Q33.0625 21.9688 24.7031 23.7812
L21.5781 24.5156
Q13.2344 26.2656 9.51562 29.9062
Q5.8125 33.5469 5.8125 39.8906
Q5.8125 47.6094 11.2812 51.7969
Q16.75 56 26.8125 56
Q31.7812 56 36.1719 55.2656
Q40.5781 54.5469 44.2812 53.0781" id="BitstreamVeraSans-Roman-73"/>
    </defs>
    <g style="fill:#ff0000;" transform="translate(244.8 38.59125)scale(0.12 -0.12)">
     <use xlink:href="#BitstreamVeraSans-Roman-6f"/>
     <use x="61.181640625" xlink:href="#BitstreamVeraSans-Roman-75"/>
     <use x="124.560546875" xlink:href="#BitstreamVeraSans-Roman-74"/>
     <use x="163.76953125" xlink:href="#BitstreamVeraSans-Roman-6c"/>
     <use x="191.552734375" xlink:href="#BitstreamVeraSans-Roman-69"/>
     <use x="219.3359375" xlink:href="#BitstreamVeraSans-Roman-65"/>
     <use x="280.859375" xlink:href="#BitstreamVeraSans-Roman-72"/>
     <use x="321.97265625" xlink:href="#BitstreamVeraSans-Roman-73"/>
    </g>
   </g>
   <g id="patch_3">
    <path d="
M240.796 201.6
Q235.158 201.6 230.638 201.6" style="fill:none;stroke:#000000;stroke-linecap:round;"/>
    <path d="
M235.438 204
L230.638 201.6
L235.438 199.2" style="fill:none;stroke:#000000;stroke-linecap:round;"/>
   </g>
   <g id="text_2">
    <!-- 75th percentile + -->
    <defs>
     <path id="BitstreamVeraSans-Roman-20"/>
     <path d="
M18.1094 8.20312
L18.1094 -20.7969
L9.07812 -20.7969
L9.07812 54.6875
L18.1094 54.6875
L18.1094 46.3906
Q20.9531 51.2656 25.2656 53.625
Q29.5938 56 35.5938 56
Q45.5625 56 51.7812 48.0938
Q58.0156 40.1875 58.0156 27.2969
Q58.0156 14.4062 51.7812 6.48438
Q45.5625 -1.42188 35.5938 -1.42188
Q29.5938 -1.42188 25.2656 0.953125
Q20.9531 3.32812 18.1094 8.20312
M48.6875 27.2969
Q48.6875 37.2031 44.6094 42.8438
Q40.5312 48.4844 33.4062 48.4844
Q26.2656 48.4844 22.1875 42.8438
Q18.1094 37.2031 18.1094 27.2969
Q18.1094 17.3906 22.1875 11.75
Q26.2656 6.10938 33.4062 6.10938
Q40.5312 6.10938 44.6094 11.75
Q48.6875 17.3906 48.6875 27.2969" id="BitstreamVeraSans-Roman-70"/>
     <path d="
M8.20312 72.9062
L55.0781 72.9062
L55.0781 68.7031
L28.6094 0
L18.3125 0
L43.2188 64.5938
L8.20312 64.5938
z
" id="BitstreamVeraSans-Roman-37"/>
     <path d="
M10.7969 72.9062
L49.5156 72.9062
L49.5156 64.5938
L19.8281 64.5938
L19.8281 46.7344
Q21.9688 47.4688 24.1094 47.8281
Q26.2656 48.1875 28.4219 48.1875
Q40.625 48.1875 47.75 41.5
Q54.8906 34.8125 54.8906 23.3906
Q54.8906 11.625 47.5625 5.09375
Q40.2344 -1.42188 26.9062 -1.42188
Q22.3125 -1.42188 17.5469 -0.640625
Q12.7969 0.140625 7.71875 1.70312
L7.71875 11.625
Q12.1094 9.23438 16.7969 8.0625
Q21.4844 6.89062 26.7031 6.89062
Q35.1562 6.89062 40.0781 11.3281
Q45.0156 15.7656 45.0156 23.3906
Q45.0156 31 40.0781 35.4375
Q35.1562 39.8906 26.7031 39.8906
Q22.75 39.8906 18.8125 39.0156
Q14.8906 38.1406 10.7969 36.2812
z
" id="BitstreamVeraSans-Roman-35"/>
     <path d="
M54.8906 33.0156
L54.8906 0
L45.9062 0
L45.9062 32.7188
Q45.9062 40.4844 42.875 44.3281
Q39.8438 48.1875 33.7969 48.1875
Q26.5156 48.1875 22.3125 43.5469
Q18.1094 38.9219 18.1094 30.9062
L18.1094 0
L9.07812 0
L9.07812 54.6875
L18.1094 54.6875
L18.1094 46.1875
Q21.3438 51.125 25.7031 53.5625
Q30.0781 56 35.7969 56
Q45.2188 56 50.0469 50.1719
Q54.8906 44.3438 54.8906 33.0156" id="BitstreamVeraSans-Roman-6e"/>
     <path d="
M46 62.7031
L46 35.5
L73.1875 35.5
L73.1875 27.2031
L46 27.2031
L46 0
L37.7969 0
L37.7969 27.2031
L10.5938 27.2031
L10.5938 35.5
L37.7969 35.5
L37.7969 62.7031
z
" id="BitstreamVeraSans-Roman-2b"/>
     <path d="
M54.8906 33.0156
L54.8906 0
L45.9062 0
L45.9062 32.7188
Q45.9062 40.4844 42.875 44.3281
Q39.8438 48.1875 33.7969 48.1875
Q26.5156 48.1875 22.3125 43.5469
Q18.1094 38.9219 18.1094 30.9062
L18.1094 0
L9.07812 0
L9.07812 75.9844
L18.1094 75.9844
L18.1094 46.1875
Q21.3438 51.125 25.7031 53.5625
Q30.0781 56 35.7969 56
Q45.2188 56 50.0469 50.1719
Q54.8906 44.3438 54.8906 33.0156" id="BitstreamVeraSans-Roman-68"/>
     <path d="
M48.7812 52.5938
L48.7812 44.1875
Q44.9688 46.2969 41.1406 47.3438
Q37.3125 48.3906 33.4062 48.3906
Q24.6562 48.3906 19.8125 42.8438
Q14.9844 37.3125 14.9844 27.2969
Q14.9844 17.2812 19.8125 11.7344
Q24.6562 6.20312 33.4062 6.20312
Q37.3125 6.20312 41.1406 7.25
Q44.9688 8.29688 48.7812 10.4062
L48.7812 2.09375
Q45.0156 0.34375 40.9844 -0.53125
Q36.9688 -1.42188 32.4219 -1.42188
Q20.0625 -1.42188 12.7812 6.34375
Q5.51562 14.1094 5.51562 27.2969
Q5.51562 40.6719 12.8594 48.3281
Q20.2188 56 33.0156 56
Q37.1562 56 41.1094 55.1406
Q45.0625 54.2969 48.7812 52.5938" id="BitstreamVeraSans-Roman-63"/>
    </defs>
    <g style="fill:#ff0000;" transform="translate(244.8 191.473875)scale(0.12 -0.12)">
     <use xlink:href="#BitstreamVeraSans-Roman-37"/>
     <use x="63.623046875" xlink:href="#BitstreamVeraSans-Roman-35"/>
     <use x="127.24609375" xlink:href="#BitstreamVeraSans-Roman-74"/>
     <use x="166.455078125" xlink:href="#BitstreamVeraSans-Roman-68"/>
     <use x="229.833984375" xlink:href="#BitstreamVeraSans-Roman-20"/>
     <use x="261.62109375" xlink:href="#BitstreamVeraSans-Roman-70"/>
     <use x="325.09765625" xlink:href="#BitstreamVeraSans-Roman-65"/>
     <use x="386.62109375" xlink:href="#BitstreamVeraSans-Roman-72"/>
     <use x="425.484375" xlink:href="#BitstreamVeraSans-Roman-63"/>
     <use x="480.46484375" xlink:href="#BitstreamVeraSans-Roman-65"/>
     <use x="541.98828125" xlink:href="#BitstreamVeraSans-Roman-6e"/>
     <use x="605.3671875" xlink:href="#BitstreamVeraSans-Roman-74"/>
     <use x="644.576171875" xlink:href="#BitstreamVeraSans-Roman-69"/>
     <use x="672.359375" xlink:href="#BitstreamVeraSans-Roman-6c"/>
     <use x="700.142578125" xlink:href="#BitstreamVeraSans-Roman-65"/>
     <use x="761.666015625" xlink:href="#BitstreamVeraSans-Roman-20"/>
     <use x="793.453125" xlink:href="#BitstreamVeraSans-Roman-2b"/>
    </g>
    <!-- 1.5x inter-quartile -->
    <defs>
     <path d="
M12.4062 8.29688
L28.5156 8.29688
L28.5156 63.9219
L10.9844 60.4062
L10.9844 69.3906
L28.4219 72.9062
L38.2812 72.9062
L38.2812 8.29688
L54.3906 8.29688
L54.3906 0
L12.4062 0
z
" id="BitstreamVeraSans-Roman-31"/>
     <path d="
M10.6875 12.4062
L21 12.4062
L21 0
L10.6875 0
z
" id="BitstreamVeraSans-Roman-2e"/>
     <path d="
M4.89062 31.3906
L31.2031 31.3906
L31.2031 23.3906
L4.89062 23.3906
z
" id="BitstreamVeraSans-Roman-2d"/>
     <path d="
M54.8906 54.6875
L35.1094 28.0781
L55.9062 0
L45.3125 0
L29.3906 21.4844
L13.4844 0
L2.875 0
L24.125 28.6094
L4.6875 54.6875
L15.2812 54.6875
L29.7812 35.2031
L44.2812 54.6875
z
" id="BitstreamVeraSans-Roman-78"/>
     <path d="
M34.2812 27.4844
Q23.3906 27.4844 19.1875 25
Q14.9844 22.5156 14.9844 16.5
Q14.9844 11.7188 18.1406 8.90625
Q21.2969 6.10938 26.7031 6.10938
Q34.1875 6.10938 38.7031 11.4062
Q43.2188 16.7031 43.2188 25.4844
L43.2188 27.4844
z

M52.2031 31.2031
L52.2031 0
L43.2188 0
L43.2188 8.29688
Q40.1406 3.32812 35.5469 0.953125
Q30.9531 -1.42188 24.3125 -1.42188
Q15.9219 -1.42188 10.9531 3.29688
Q6 8.01562 6 15.9219
Q6 25.1406 12.1719 29.8281
Q18.3594 34.5156 30.6094 34.5156
L43.2188 34.5156
L43.2188 35.4062
Q43.2188 41.6094 39.1406 45
Q35.0625 48.3906 27.6875 48.3906
Q23 48.3906 18.5469 47.2656
Q14.1094 46.1406 10.0156 43.8906
L10.0156 52.2031
Q14.9375 54.1094 19.5781 55.0469
Q24.2188 56 28.6094 56
Q40.4844 56 46.3438 49.8438
Q52.2031 43.7031 52.2031 31.2031" id="BitstreamVeraSans-Roman-61"/>
     <path d="
M14.7969 27.2969
Q14.7969 17.3906 18.875 11.75
Q22.9531 6.10938 30.0781 6.10938
Q37.2031 6.10938 41.2969 11.75
Q45.4062 17.3906 45.4062 27.2969
Q45.4062 37.2031 41.2969 42.8438
Q37.2031 48.4844 30.0781 48.4844
Q22.9531 48.4844 18.875 42.8438
Q14.7969 37.2031 14.7969 27.2969
M45.4062 8.20312
Q42.5781 3.32812 38.25 0.953125
Q33.9375 -1.42188 27.875 -1.42188
Q17.9688 -1.42188 11.7344 6.48438
Q5.51562 14.4062 5.51562 27.2969
Q5.51562 40.1875 11.7344 48.0938
Q17.9688 56 27.875 56
Q33.9375 56 38.25 53.625
Q42.5781 51.2656 45.4062 46.3906
L45.4062 54.6875
L54.3906 54.6875
L54.3906 -20.7969
L45.4062 -20.7969
z
" id="BitstreamVeraSans-Roman-71"/>
    </defs>
    <g style="fill:#ff0000;" transform="translate(244.8 204.91125)scale(0.12 -0.12)">
     <use xlink:href="#BitstreamVeraSans-Roman-31"/>
     <use x="63.623046875" xlink:href="#BitstreamVeraSans-Roman-2e"/>
     <use x="95.41015625" xlink:href="#BitstreamVeraSans-Roman-35"/>
     <use x="159.033203125" xlink:href="#BitstreamVeraSans-Roman-78"/>
     <use x="218.212890625" xlink:href="#BitstreamVeraSans-Roman-20"/>
     <use x="250.0" xlink:href="#BitstreamVeraSans-Roman-69"/>
     <use x="277.783203125" xlink:href="#BitstreamVeraSans-Roman-6e"/>
     <use x="341.162109375" xlink:href="#BitstreamVeraSans-Roman-74"/>
     <use x="380.37109375" xlink:href="#BitstreamVeraSans-Roman-65"/>
     <use x="441.89453125" xlink:href="#BitstreamVeraSans-Roman-72"/>
     <use x="476.6328125" xlink:href="#BitstreamVeraSans-Roman-2d"/>
     <use x="512.716796875" xlink:href="#BitstreamVeraSans-Roman-71"/>
     <use x="576.193359375" xlink:href="#BitstreamVeraSans-Roman-75"/>
     <use x="639.572265625" xlink:href="#BitstreamVeraSans-Roman-61"/>
     <use x="700.8515625" xlink:href="#BitstreamVeraSans-Roman-72"/>
     <use x="741.96484375" xlink:href="#BitstreamVeraSans-Roman-74"/>
     <use x="781.173828125" xlink:href="#BitstreamVeraSans-Roman-69"/>
     <use x="808.95703125" xlink:href="#BitstreamVeraSans-Roman-6c"/>
     <use x="836.740234375" xlink:href="#BitstreamVeraSans-Roman-65"/>
    </g>
    <!--         range -->
    <defs>
     <path d="
M45.4062 27.9844
Q45.4062 37.75 41.375 43.1094
Q37.3594 48.4844 30.0781 48.4844
Q22.8594 48.4844 18.8281 43.1094
Q14.7969 37.75 14.7969 27.9844
Q14.7969 18.2656 18.8281 12.8906
Q22.8594 7.51562 30.0781 7.51562
Q37.3594 7.51562 41.375 12.8906
Q45.4062 18.2656 45.4062 27.9844
M54.3906 6.78125
Q54.3906 -7.17188 48.1875 -13.9844
Q42 -20.7969 29.2031 -20.7969
Q24.4688 -20.7969 20.2656 -20.0938
Q16.0625 -19.3906 12.1094 -17.9219
L12.1094 -9.1875
Q16.0625 -11.3281 19.9219 -12.3438
Q23.7812 -13.375 27.7812 -13.375
Q36.625 -13.375 41.0156 -8.76562
Q45.4062 -4.15625 45.4062 5.17188
L45.4062 9.625
Q42.625 4.78125 38.2812 2.39062
Q33.9375 0 27.875 0
Q17.8281 0 11.6719 7.65625
Q5.51562 15.3281 5.51562 27.9844
Q5.51562 40.6719 11.6719 48.3281
Q17.8281 56 27.875 56
Q33.9375 56 38.2812 53.6094
Q42.625 51.2188 45.4062 46.3906
L45.4062 54.6875
L54.3906 54.6875
z
" id="BitstreamVeraSans-Roman-67"/>
    </defs>
    <g style="fill:#ff0000;" transform="translate(244.8 218.348625)scale(0.12 -0.12)">
     <use xlink:href="#BitstreamVeraSans-Roman-20"/>
     <use x="31.787109375" xlink:href="#BitstreamVeraSans-Roman-20"/>
     <use x="63.57421875" xlink:href="#BitstreamVeraSans-Roman-20"/>
     <use x="95.361328125" xlink:href="#BitstreamVeraSans-Roman-20"/>
     <use x="127.1484375" xlink:href="#BitstreamVeraSans-Roman-20"/>
     <use x="158.935546875" xlink:href="#BitstreamVeraSans-Roman-20"/>
     <use x="190.72265625" xlink:href="#BitstreamVeraSans-Roman-20"/>
     <use x="222.509765625" xlink:href="#BitstreamVeraSans-Roman-20"/>
     <use x="254.296875" xlink:href="#BitstreamVeraSans-Roman-72"/>
     <use x="295.41015625" xlink:href="#BitstreamVeraSans-Roman-61"/>
     <use x="356.689453125" xlink:href="#BitstreamVeraSans-Roman-6e"/>
     <use x="420.068359375" xlink:href="#BitstreamVeraSans-Roman-67"/>
     <use x="483.544921875" xlink:href="#BitstreamVeraSans-Roman-65"/>
    </g>
   </g>
   <g id="patch_4">
    <path d="
M176.797 277.2
Q188.198 277.2 198.481 277.2" style="fill:none;stroke:#000000;stroke-linecap:round;"/>
    <path d="
M193.681 274.8
L198.481 277.2
L193.681 279.6" style="fill:none;stroke:#000000;stroke-linecap:round;"/>
   </g>
   <g id="text_3">
    <!-- 75th -->
    <g style="fill:#ff0000;" transform="translate(147.223125 273.7925625)scale(0.12 -0.12)">
     <use xlink:href="#BitstreamVeraSans-Roman-37"/>
     <use x="63.623046875" xlink:href="#BitstreamVeraSans-Roman-35"/>
     <use x="127.24609375" xlink:href="#BitstreamVeraSans-Roman-74"/>
     <use x="166.455078125" xlink:href="#BitstreamVeraSans-Roman-68"/>
    </g>
    <!-- percentile -->
    <g style="fill:#ff0000;" transform="translate(114.52125 287.2299375)scale(0.12 -0.12)">
     <use xlink:href="#BitstreamVeraSans-Roman-70"/>
     <use x="63.4765625" xlink:href="#BitstreamVeraSans-Roman-65"/>
     <use x="125.0" xlink:href="#BitstreamVeraSans-Roman-72"/>
     <use x="163.86328125" xlink:href="#BitstreamVeraSans-Roman-63"/>
     <use x="218.84375" xlink:href="#BitstreamVeraSans-Roman-65"/>
     <use x="280.3671875" xlink:href="#BitstreamVeraSans-Roman-6e"/>
     <use x="343.74609375" xlink:href="#BitstreamVeraSans-Roman-74"/>
     <use x="382.955078125" xlink:href="#BitstreamVeraSans-Roman-69"/>
     <use x="410.73828125" xlink:href="#BitstreamVeraSans-Roman-6c"/>
     <use x="438.521484375" xlink:href="#BitstreamVeraSans-Roman-65"/>
    </g>
   </g>
   <g id="patch_5">
    <path d="
M240.798 304.92
Q235.159 304.92 230.638 304.92" style="fill:none;stroke:#000000;stroke-linecap:round;"/>
    <path d="
M235.438 307.32
L230.638 304.92
L235.438 302.52" style="fill:none;stroke:#000000;stroke-linecap:round;"/>
   </g>
   <g id="text_4">
    <!-- 95% confidence -->
    <defs>
     <path d="
M37.1094 75.9844
L37.1094 68.5
L28.5156 68.5
Q23.6875 68.5 21.7969 66.5469
Q19.9219 64.5938 19.9219 59.5156
L19.9219 54.6875
L34.7188 54.6875
L34.7188 47.7031
L19.9219 47.7031
L19.9219 0
L10.8906 0
L10.8906 47.7031
L2.29688 47.7031
L2.29688 54.6875
L10.8906 54.6875
L10.8906 58.5
Q10.8906 67.625 15.1406 71.7969
Q19.3906 75.9844 28.6094 75.9844
z
" id="BitstreamVeraSans-Roman-66"/>
     <path d="
M10.9844 1.51562
L10.9844 10.5
Q14.7031 8.73438 18.5 7.8125
Q22.3125 6.89062 25.9844 6.89062
Q35.75 6.89062 40.8906 13.4531
Q46.0469 20.0156 46.7812 33.4062
Q43.9531 29.2031 39.5938 26.9531
Q35.25 24.7031 29.9844 24.7031
Q19.0469 24.7031 12.6719 31.3125
Q6.29688 37.9375 6.29688 49.4219
Q6.29688 60.6406 12.9375 67.4219
Q19.5781 74.2188 30.6094 74.2188
Q43.2656 74.2188 49.9219 64.5156
Q56.5938 54.8281 56.5938 36.375
Q56.5938 19.1406 48.4062 8.85938
Q40.2344 -1.42188 26.4219 -1.42188
Q22.7031 -1.42188 18.8906 -0.6875
Q15.0938 0.046875 10.9844 1.51562
M30.6094 32.4219
Q37.25 32.4219 41.125 36.9531
Q45.0156 41.5 45.0156 49.4219
Q45.0156 57.2812 41.125 61.8438
Q37.25 66.4062 30.6094 66.4062
Q23.9688 66.4062 20.0938 61.8438
Q16.2188 57.2812 16.2188 49.4219
Q16.2188 41.5 20.0938 36.9531
Q23.9688 32.4219 30.6094 32.4219" id="BitstreamVeraSans-Roman-39"/>
     <path d="
M72.7031 32.0781
Q68.4531 32.0781 66.0312 28.4688
Q63.625 24.8594 63.625 18.4062
Q63.625 12.0625 66.0312 8.42188
Q68.4531 4.78125 72.7031 4.78125
Q76.8594 4.78125 79.2656 8.42188
Q81.6875 12.0625 81.6875 18.4062
Q81.6875 24.8125 79.2656 28.4375
Q76.8594 32.0781 72.7031 32.0781
M72.7031 38.2812
Q80.4219 38.2812 84.9531 32.9062
Q89.5 27.5469 89.5 18.4062
Q89.5 9.28125 84.9375 3.92188
Q80.375 -1.42188 72.7031 -1.42188
Q64.8906 -1.42188 60.3438 3.92188
Q55.8125 9.28125 55.8125 18.4062
Q55.8125 27.5938 60.375 32.9375
Q64.9375 38.2812 72.7031 38.2812
M22.3125 68.0156
Q18.1094 68.0156 15.6875 64.375
Q13.2812 60.75 13.2812 54.3906
Q13.2812 47.9531 15.6719 44.3281
Q18.0625 40.7188 22.3125 40.7188
Q26.5625 40.7188 28.9688 44.3281
Q31.3906 47.9531 31.3906 54.3906
Q31.3906 60.6875 28.9531 64.3438
Q26.5156 68.0156 22.3125 68.0156
M66.4062 74.2188
L74.2188 74.2188
L28.6094 -1.42188
L20.7969 -1.42188
z

M22.3125 74.2188
Q30.0312 74.2188 34.6094 68.875
Q39.2031 63.5312 39.2031 54.3906
Q39.2031 45.1719 34.6406 39.8438
Q30.0781 34.5156 22.3125 34.5156
Q14.5469 34.5156 10.0312 39.8594
Q5.51562 45.2188 5.51562 54.3906
Q5.51562 63.4844 10.0469 68.8438
Q14.5938 74.2188 22.3125 74.2188" id="BitstreamVeraSans-Roman-25"/>
     <path d="
M45.4062 46.3906
L45.4062 75.9844
L54.3906 75.9844
L54.3906 0
L45.4062 0
L45.4062 8.20312
Q42.5781 3.32812 38.25 0.953125
Q33.9375 -1.42188 27.875 -1.42188
Q17.9688 -1.42188 11.7344 6.48438
Q5.51562 14.4062 5.51562 27.2969
Q5.51562 40.1875 11.7344 48.0938
Q17.9688 56 27.875 56
Q33.9375 56 38.25 53.625
Q42.5781 51.2656 45.4062 46.3906
M14.7969 27.2969
Q14.7969 17.3906 18.875 11.75
Q22.9531 6.10938 30.0781 6.10938
Q37.2031 6.10938 41.2969 11.75
Q45.4062 17.3906 45.4062 27.2969
Q45.4062 37.2031 41.2969 42.8438
Q37.2031 48.4844 30.0781 48.4844
Q22.9531 48.4844 18.875 42.8438
Q14.7969 37.2031 14.7969 27.2969" id="BitstreamVeraSans-Roman-64"/>
    </defs>
    <g style="fill:#ff0000;" transform="translate(244.8 301.5125625)scale(0.12 -0.12)">
     <use xlink:href="#BitstreamVeraSans-Roman-39"/>
     <use x="63.623046875" xlink:href="#BitstreamVeraSans-Roman-35"/>
     <use x="127.24609375" xlink:href="#BitstreamVeraSans-Roman-25"/>
     <use x="222.265625" xlink:href="#BitstreamVeraSans-Roman-20"/>
     <use x="254.052734375" xlink:href="#BitstreamVeraSans-Roman-63"/>
     <use x="309.033203125" xlink:href="#BitstreamVeraSans-Roman-6f"/>
     <use x="370.21484375" xlink:href="#BitstreamVeraSans-Roman-6e"/>
     <use x="433.59375" xlink:href="#BitstreamVeraSans-Roman-66"/>
     <use x="468.798828125" xlink:href="#BitstreamVeraSans-Roman-69"/>
     <use x="496.58203125" xlink:href="#BitstreamVeraSans-Roman-64"/>
     <use x="560.05859375" xlink:href="#BitstreamVeraSans-Roman-65"/>
     <use x="621.58203125" xlink:href="#BitstreamVeraSans-Roman-6e"/>
     <use x="684.9609375" xlink:href="#BitstreamVeraSans-Roman-63"/>
     <use x="739.94140625" xlink:href="#BitstreamVeraSans-Roman-65"/>
    </g>
    <!-- interval -->
    <defs>
     <path d="
M2.98438 54.6875
L12.5 54.6875
L29.5938 8.79688
L46.6875 54.6875
L56.2031 54.6875
L35.6875 0
L23.4844 0
z
" id="BitstreamVeraSans-Roman-76"/>
    </defs>
    <g style="fill:#ff0000;" transform="translate(244.8 314.9499375)scale(0.12 -0.12)">
     <use xlink:href="#BitstreamVeraSans-Roman-69"/>
     <use x="27.783203125" xlink:href="#BitstreamVeraSans-Roman-6e"/>
     <use x="91.162109375" xlink:href="#BitstreamVeraSans-Roman-74"/>
     <use x="130.37109375" xlink:href="#BitstreamVeraSans-Roman-65"/>
     <use x="191.89453125" xlink:href="#BitstreamVeraSans-Roman-72"/>
     <use x="233.0078125" xlink:href="#BitstreamVeraSans-Roman-76"/>
     <use x="292.1875" xlink:href="#BitstreamVeraSans-Roman-61"/>
     <use x="353.466796875" xlink:href="#BitstreamVeraSans-Roman-6c"/>
    </g>
   </g>
   <g id="patch_6">
    <path d="
M176.801 315
Q190.001 315 202.082 315" style="fill:none;stroke:#000000;stroke-linecap:round;"/>
    <path d="
M197.282 312.6
L202.082 315
L197.282 317.4" style="fill:none;stroke:#000000;stroke-linecap:round;"/>
   </g>
   <g id="text_5">
    <!-- median -->
    <defs>
     <path d="
M52 44.1875
Q55.375 50.25 60.0625 53.125
Q64.75 56 71.0938 56
Q79.6406 56 84.2812 50.0156
Q88.9219 44.0469 88.9219 33.0156
L88.9219 0
L79.8906 0
L79.8906 32.7188
Q79.8906 40.5781 77.0938 44.375
Q74.3125 48.1875 68.6094 48.1875
Q61.625 48.1875 57.5625 43.5469
Q53.5156 38.9219 53.5156 30.9062
L53.5156 0
L44.4844 0
L44.4844 32.7188
Q44.4844 40.625 41.7031 44.4062
Q38.9219 48.1875 33.1094 48.1875
Q26.2188 48.1875 22.1562 43.5312
Q18.1094 38.875 18.1094 30.9062
L18.1094 0
L9.07812 0
L9.07812 54.6875
L18.1094 54.6875
L18.1094 46.1875
Q21.1875 51.2188 25.4844 53.6094
Q29.7812 56 35.6875 56
Q41.6562 56 45.8281 52.9688
Q50 49.9531 52 44.1875" id="BitstreamVeraSans-Roman-6d"/>
    </defs>
    <g style="fill:#ff0000;" transform="translate(129.924375 318.31125)scale(0.12 -0.12)">
     <use xlink:href="#BitstreamVeraSans-Roman-6d"/>
     <use x="97.412109375" xlink:href="#BitstreamVeraSans-Roman-65"/>
     <use x="158.935546875" xlink:href="#BitstreamVeraSans-Roman-64"/>
     <use x="222.412109375" xlink:href="#BitstreamVeraSans-Roman-69"/>
     <use x="250.1953125" xlink:href="#BitstreamVeraSans-Roman-61"/>
     <use x="311.474609375" xlink:href="#BitstreamVeraSans-Roman-6e"/>
    </g>
   </g>
  </g>
 </g>
 <defs>
  <clipPath id="p39204711de">
   <rect height="504.0" width="432.0" x="0.0" y="0.0"/>
  </clipPath>
 </defs>
</svg>
